<svg xmlns="http://www.w3.org/2000/svg" viewBox="0 0 486.97 336.48"><path d="M454,.09a35.53,35.53,0,0,0-38,35.44v0a2.2,2.2,0,0,1-1.66,2.13L195.16,92.6a18.61,18.61,0,0,1-20.78-9.13A93,93,0,0,0,94.45,35.54C43.29,34.76.72,76,0,127.2a93,93,0,0,0,154,71.51,11.22,11.22,0,0,1,14.17-.55l78.67,59.74a26.14,26.14,0,0,1,10.2,21V279a57.44,57.44,0,1,0,32.74-51.89,16.5,16.5,0,0,1-15.67-.73L189.3,175.08a16.71,16.71,0,0,1-7.4-19.16,92.9,92.9,0,0,0,4.11-27.4v-.15a18.81,18.81,0,0,1,13.94-18.19L411.72,53.39a11,11,0,0,1,11.56,3.79A35.52,35.52,0,1,0,454,.09Z"/></svg>