<svg xmlns="http://www.w3.org/2000/svg" viewBox="0 0 158 175"><path d="M142.74,36c-.41,0-.82,0-1.24,0H16.5C7.4,36,0,42.51,0,50.52v110c0,8,7.4,14.52,16.5,14.52h125c9.1,0,16.5-6.51,16.5-14.52v-110C158,42.88,151.26,36.6,142.74,36ZM148,160.48c0,3.15-2.92,5.72-6.5,5.72H16.5c-3.58,0-6.5-2.57-6.5-5.72v-110c0-3.15,2.92-5.72,6.5-5.72h125c3.58,0,6.5,2.57,6.5,5.72Z"/><path d="M83.82,117H74.18A6.92,6.92,0,0,1,67.27,110v-9.63a6.92,6.92,0,0,1,6.91-6.91h9.63a6.92,6.92,0,0,1,6.91,6.91V110A6.92,6.92,0,0,1,83.82,117ZM74.18,98.5a1.91,1.91,0,0,0-1.91,1.91V110A1.91,1.91,0,0,0,74.18,112h9.63A1.91,1.91,0,0,0,85.73,110v-9.63a1.91,1.91,0,0,0-1.91-1.91Z"/><rect x="76.32" y="105.05" width="5" height="18.45" rx="2.5" ry="2.5"/><path d="M109,0H49A32,32,0,0,0,17,32a31.13,31.13,0,0,0,.25,4,31.7,31.7,0,0,0,2.43,8.8H31.13A21.6,21.6,0,0,1,27.37,36,22,22,0,0,1,49,10h60a22,22,0,0,1,21.63,26,21.6,21.6,0,0,1-3.76,8.8h11.46A32,32,0,0,0,109,0Z"/></svg>