<svg xmlns="http://www.w3.org/2000/svg" viewBox="0 0 246 260"><path d="M240,260H89c-3.31,0-6-2.34-6-5.22V224c0-2.88,2.68-5.22,6-5.22h0c3.31,0,6,2.34,6,5.22v20.34c0,2.88,2.68,5.22,6,5.22H228c3.31,0,6-2.34,6-5.22V15.65c0-2.88-2.68-5.22-6-5.22H101c-3.31,0-6,2.34-6,5.22V37c0,2.88-2.68,5.22-6,5.22h0c-3.31,0-6-2.34-6-5.22V5.22C83.06,2.34,85.74,0,89,0H240c3.31,0,6,2.34,6,5.22V254.78C246,257.66,243.32,260,240,260Z"/><path d="M157.17,128.89l-46.58,62.47V139.14H10.1c-5.95,0-10.1-5.62-10.1-13.66s4.15-13.65,10.1-13.65H110.59V59.61l46.58,62.47A6,6,0,0,1,157.17,128.89Z"/></svg>