<svg xmlns="http://www.w3.org/2000/svg" viewBox="0 0 204 260"><path d="M157.76,0H46.24A46.24,46.24,0,0,0,0,46.24V213.76A46.24,46.24,0,0,0,46.24,260H157.76A46.24,46.24,0,0,0,204,213.76V46.24A46.24,46.24,0,0,0,157.76,0Zm-2,212.6q-18.68,17.27-53.65,17.25a276.82,276.82,0,0,1-68.52-8.54L38,167.82q42.41,10.77,57.29,10.76,9.81,0,9.81-7a6.18,6.18,0,0,0-2.37-5.07,38.64,38.64,0,0,0-7-4.11q-4.59-2.22-13.45-5.86t-14.87-6.33a91.92,91.92,0,0,1-14.25-8.38q-25.32-17.4-25.31-48.74t19-48.74Q65.89,27,99.6,27a398.35,398.35,0,0,1,69.47,6.33L161.79,89q-39.57-7.91-51.9-7.91T97.54,88.7a4.19,4.19,0,0,0,1.9,3.95q1.91,1.11,2.85,1.74A18,18,0,0,0,105.93,96q2.68,1,4.43,1.75c1.16.52,5,2.11,11.4,4.74s11.28,4.75,14.55,6.33a151.66,151.66,0,0,1,13.46,7.76q24.67,16.14,24.68,47.47T155.78,212.6Z"/></svg>