<svg xmlns="http://www.w3.org/2000/svg" viewBox="0 0 997.47 105.34"><title>Asset 1</title><g id="Layer_2" data-name="Layer 2"><g id="Layer_1-2" data-name="Layer 1"><path d="M34.22,55.76q0,12,2.69,17.5a9.3,9.3,0,0,0,9,5.47q6.33,0,21.07-3.48l5.07,25.19a99.1,99.1,0,0,1-29.94,4.91q-22,0-32.08-12.59T0,55.21Q0,30.26,10.46,17T44.51,3.8A75.29,75.29,0,0,1,72.08,9.19l-5.23,28.2q-15.68-4.59-21.46-4.59t-8.48,5.47Q34.21,43.72,34.22,55.76Z"/><path d="M142.25,48.31,141.3,80A2.85,2.85,0,0,0,143,82.93a16.92,16.92,0,0,0,5.94.71l-3,21.07q-9.5.63-12.83.63-11.57,0-16.79-6.18h-1.11q-7.6,6.18-19.09,6.18t-17.43-6.1q-5.94-6.1-5.94-16.87,0-13.31,9-18.53t28.43-6.65V54.33q0-2.85-3-2.85-8.08,0-27.72,4.91l-4.91-25Q97.11,26,113.42,26T136,31.36Q142.25,36.75,142.25,48.31Zm-35.8,36.59q4.59,0,4.59-4.75v-6q-8.24,1.11-8.24,6.34Q102.81,84.91,106.45,84.91Z"/><path d="M187.24,61.3v42.45H154.61V27.88h28.2l1,5.07h.63a20.93,20.93,0,0,1,8.71-4.83q4.91-1.34,14.42-1.35l-1,26.3H195.8q-4.75,0-6.65,1.74T187.24,61.3Z"/><path d="M303,103.76H269.69l-3.17-15.21H248.94l-3.33,15.21H213.77L234.2,5.39h48.32ZM264.14,68.12l-6-32.95h-.63l-6.18,32.95Z"/><path d="M345.49,50.85q-4.36,0-5.7,3.8t-1.35,11.72q0,7.92,1.27,11.49t6,3.56q4.75,0,15-2.06l3.49,22q-13.94,4-23.45,4-17.58,0-26.53-10.14t-9-28.36q0-18.22,9.19-29.54T341.29,26a68.47,68.47,0,0,1,24.24,4.28l-3.33,25Q349.84,50.85,345.49,50.85Z"/><path d="M399.45,80.47q4.36,0,5.7-3.8t1.35-11.72q0-7.92-1.27-11.49t-6-3.56q-4.75,0-15,2.06l-3.49-22q13.94-4,23.45-4,17.58,0,26.53,10.14t9,28.36q0,18.22-9.19,29.54t-26.77,11.33a68.47,68.47,0,0,1-24.24-4.28l3.33-25Q395.09,80.47,399.45,80.47Z"/><path d="M442.3,65.58q0-18.85,9.9-29.23T481.35,26q19.25,0,27.25,7.92t8,22.65q0,5.86-1.27,17.74H475.56q.63,8.56,10.46,8.55,4.59,0,24.08-3.33l2.69,21.39a123.28,123.28,0,0,1-31.37,4.44q-19,0-29.07-10.45T442.3,65.58Zm38.49-14.1q-3.33,0-4.59,2.06t-1.27,6.34h11.41V57.34Q486.34,51.49,480.79,51.48Z"/><path d="M582.17,80.16q0,25.19-29.31,25.19A129.25,129.25,0,0,1,523.4,102l2.06-23.29q19.8,4.75,26.3,4.75,2.22,0,2.22-1.43t-2.53-2.38Q535.13,74.14,527.68,68t-7.45-17.74q0-11.56,8.16-17.9t22-6.34a164,164,0,0,1,30.49,3.17l-3.33,23.92Q556.67,49,552.23,48.95q-2.06,0-2.06,1.58,0,1.27,2.69,2.22,13.15,4.28,19,8.48T580,69.86A22.77,22.77,0,0,1,582.17,80.16Z"/><path d="M597.49,69.86q2.22-4.43,8.08-8.63t19-8.48q2.7-1,2.69-2.22,0-1.58-2.06-1.58-4.43,0-25.35,4.12l-3.33-23.92A164,164,0,0,1,627,26q13.86,0,22,6.34t8.16,17.9q0,11.57-7.45,17.74T626,79.68q-2.53,1-2.53,2.38t2.22,1.43q6.5,0,26.3-4.75L654,102a129.25,129.25,0,0,1-29.46,3.33q-29.31,0-29.31-25.19A22.77,22.77,0,0,1,597.49,69.86Z"/><path d="M660.53,65.5q0-20.83,9.27-30.18t29-9.35q19.72,0,28.75,9.19t9,30.18q0,21-8.79,30.49t-28.83,9.51q-20,0-29.23-9.51T660.53,65.5ZM702.91,52q-.87-2.77-4.2-2.77T694.51,52q-.87,2.77-.87,11.8v3.8q0,10.14.87,13.07a4.47,4.47,0,0,0,8.4,0q.87-2.93.87-12.28V64Q703.78,54.81,702.91,52Z"/><path d="M776.65,61.3v42.45H744V27.88h28.2l.95,5.07h.63a20.93,20.93,0,0,1,8.71-4.83q4.91-1.34,14.42-1.35l-1,26.3H785.2q-4.75,0-6.65,1.74T776.65,61.3Z"/><path d="M804.05,13.46Q804.05,0,821,0T838,13.46q0,7-4.2,10t-12.75,3q-8.55,0-12.75-2.93T804.05,13.46Zm33.58,90.29H804.69V29.46h32.95Z"/><path d="M845.56,65.58q0-18.85,9.9-29.23T884.6,26q19.25,0,27.25,7.92t8,22.65q0,5.86-1.27,17.74H878.82q.63,8.56,10.45,8.55,4.59,0,24.08-3.33L916,100.91a123.28,123.28,0,0,1-31.37,4.44q-19,0-29.07-10.45T845.56,65.58ZM884,51.48q-3.33,0-4.59,2.06t-1.27,6.34h11.41V57.34Q889.59,51.49,884,51.48Z"/><path d="M924.13,36.91q0-15.68,9.51-24.4T960,3.8A199.46,199.46,0,0,1,994.78,7l-3.64,27.88q-19.8-4-26-4T959,34.69a2.1,2.1,0,0,0,1,2c.63.37,1.11.66,1.43.87a9.18,9.18,0,0,0,1.82.79q1.34.48,2.22.87t5.7,2.38q4.83,2,7.29,3.17a75,75,0,0,1,6.73,3.88q12.36,8.08,12.36,23.76t-9.35,24.32q-9.35,8.64-26.85,8.63a138.37,138.37,0,0,1-34.3-4.28l2.22-26.77q21.23,5.39,28.67,5.39,4.91,0,4.91-3.48a3.09,3.09,0,0,0-1.19-2.54,19.16,19.16,0,0,0-3.49-2.06q-2.3-1.11-6.73-2.93t-7.45-3.17a46,46,0,0,1-7.13-4.2Q924.12,52.59,924.13,36.91Z"/></g></g></svg>